<svg width="28" height="28" viewBox="0 0 28 28" fill="none" xmlns="http://www.w3.org/2000/svg">
<path d="M7.53075 22.1667L2.33325 26.25V4.66667C2.33325 4.35725 2.45617 4.0605 2.67496 3.84171C2.89375 3.62292 3.1905 3.5 3.49992 3.5H24.4999C24.8093 3.5 25.1061 3.62292 25.3249 3.84171C25.5437 4.0605 25.6666 4.35725 25.6666 4.66667V21C25.6666 21.3094 25.5437 21.6062 25.3249 21.825C25.1061 22.0438 24.8093 22.1667 24.4999 22.1667H7.53075ZM6.72342 19.8333H23.3333V5.83333H4.66659V21.4492L6.72342 19.8333ZM12.8333 11.6667H15.1666V14H12.8333V11.6667ZM8.16659 11.6667H10.4999V14H8.16659V11.6667ZM17.4999 11.6667H19.8333V14H17.4999V11.6667Z" fill="#CCCCCC"/>
</svg>
