<svg width="40" height="40" viewBox="0 0 40 40" fill="none" xmlns="http://www.w3.org/2000/svg">
<circle cx="20" cy="20" r="19.75" fill="white" stroke="black" stroke-width="0.5"/>
<path d="M21.0109 15.4849V8H25.5598V29.2122H21.0109V27.7879C19.9596 29.0203 18.4533 29.6364 16.4922 29.6364C14.4908 29.6364 12.7823 28.8688 11.3671 27.3333C9.95193 25.798 9.2442 23.8991 9.2442 21.6364C9.2442 19.394 9.95193 17.5051 11.3671 15.9697C12.8025 14.4142 14.511 13.6363 16.4922 13.6363C18.4533 13.6363 19.9596 14.2525 21.0109 15.4849ZM13.7931 21.6364C13.7931 22.7677 14.1267 23.6668 14.794 24.3334C15.4612 25.0001 16.3305 25.3334 17.402 25.3334C18.4735 25.3334 19.343 25.0001 20.0101 24.3334C20.6773 23.6668 21.0109 22.7677 21.0109 21.6364C21.0109 20.5051 20.6773 19.6061 20.0101 18.9393C19.343 18.2727 18.4735 17.9394 17.402 17.9394C16.3305 17.9394 15.4612 18.2727 14.794 18.9393C14.1267 19.6061 13.7931 20.5051 13.7931 21.6364Z" fill="black"/>
<path d="M32.1754 21.1631L26.7734 28.054C28.2722 24.9475 29.6575 22.9801 28.0377 21.1631H32.1754Z" fill="#FF0000"/>
<path d="M32.1754 21.1634L26.7734 14.2725C28.2722 17.3791 29.6575 19.3464 28.0377 21.1634H32.1754Z" fill="#FF0000"/>
<path d="M32.1754 21.1634L26.7734 14.2725C28.2722 17.3791 29.6575 19.3464 28.0377 21.1634M32.1754 21.1634L26.7734 28.0544C28.2722 24.9479 29.6575 22.9805 28.0377 21.1634H32.1754ZM32.1754 21.1634H28.0377H32.1754Z" stroke="white" stroke-width="0.140395"/>
<path d="M9 21H28" stroke="white" stroke-width="0.842372"/>
</svg>
